<?xml version="1.0" encoding="iso-8859-1"?>
<!-- Generator: Adobe Illustrator 19.0.0, SVG Export Plug-In . SVG Version: 6.00 Build 0)  -->
<svg version="1.1" id="Capa_1" xmlns="http://www.w3.org/2000/svg" xmlns:xlink="http://www.w3.org/1999/xlink" x="0px" y="0px"
	 viewBox="0 0 512 512" style="enable-background:new 0 0 512 512;" xml:space="preserve">
<g>
	<g>
		<path fill="white" d="M473.6,0H38.4C17.229,0,0,17.229,0,38.4v435.2C0,494.771,17.229,512,38.4,512h435.2c21.171,0,38.4-17.229,38.4-38.4V38.4
			C512,17.229,494.771,0,473.6,0z M494.933,473.6c0,11.759-9.566,21.333-21.333,21.333H38.4c-11.759,0-21.333-9.574-21.333-21.333
			V38.4c0-11.759,9.574-21.333,21.333-21.333h435.2c11.759,0,21.333,9.574,21.333,21.333V473.6z"/>
	</g>
</g>
<g>
	<g>
		<path fill="white" d="M76.8,34.133H42.667c-4.71,0-8.533,3.823-8.533,8.533V76.8c0,4.71,3.823,8.533,8.533,8.533H76.8
			c4.71,0,8.533-3.823,8.533-8.533V42.667C85.333,37.956,81.51,34.133,76.8,34.133z M68.267,68.267H51.2V51.2h17.067V68.267z"/>
	</g>
</g>
<g>
	<g>
		<path fill="white" d="M145.067,34.133h-34.133c-4.71,0-8.533,3.823-8.533,8.533V76.8c0,4.71,3.823,8.533,8.533,8.533h34.133
			c4.71,0,8.533-3.823,8.533-8.533V42.667C153.6,37.956,149.777,34.133,145.067,34.133z M136.533,68.267h-17.067V51.2h17.067V68.267
			z"/>
	</g>
</g>
<g>
	<g>
		<path fill="white" d="M213.333,34.133H179.2c-4.71,0-8.533,3.823-8.533,8.533V76.8c0,4.71,3.823,8.533,8.533,8.533h34.133
			c4.71,0,8.533-3.823,8.533-8.533V42.667C221.867,37.956,218.044,34.133,213.333,34.133z M204.8,68.267h-17.067V51.2H204.8V68.267z
			"/>
	</g>
</g>
<g>
	<g>
		<path fill="white" d="M473.6,0H38.4C17.229,0,0,17.229,0,38.4v72.533c0,4.71,3.823,8.533,8.533,8.533h494.933c4.71,0,8.533-3.823,8.533-8.533
			V38.4C512,17.229,494.771,0,473.6,0z M494.933,102.4H17.067v-64c0-11.759,9.574-21.333,21.333-21.333h435.2
			c11.759,0,21.333,9.574,21.333,21.333V102.4z"/>
	</g>
</g>
<g>
	<g>
		<path fill="white" d="M420.634,145.067H91.366c-17.442,0-31.633,14.191-31.633,31.633v192.734c0,17.442,14.191,31.633,31.633,31.633h329.267
			c17.442,0,31.633-14.191,31.633-31.633V176.7C452.267,159.258,438.076,145.067,420.634,145.067z M435.2,369.434
			c0,8.03-6.536,14.566-14.566,14.566H91.366c-8.03,0-14.566-6.536-14.566-14.566V176.7c0-8.03,6.537-14.566,14.566-14.566h329.267
			c8.03,0,14.566,6.536,14.566,14.566V369.434z"/>
	</g>
</g>
<g>
	<g>
		<path fill="white" d="M409.6,247.467h-34.133c-4.71,0-8.533,3.823-8.533,8.533v34.133c0,4.71,3.823,8.533,8.533,8.533H409.6
			c4.71,0,8.533-3.823,8.533-8.533V256C418.133,251.29,414.31,247.467,409.6,247.467z M401.067,281.6H384v-17.067h17.067V281.6z"/>
	</g>
</g>
<g>
	<g>
		<path fill="white" d="M341.333,179.2H102.4c-4.71,0-8.533,3.823-8.533,8.533V358.4c0,4.71,3.823,8.533,8.533,8.533h238.933
			c4.71,0,8.533-3.823,8.533-8.533V187.733C349.867,183.023,346.044,179.2,341.333,179.2z M332.8,349.867H110.933v-153.6H332.8
			V349.867z"/>
	</g>
</g>
<g>
	<g>
		<path fill="white" d="M307.2,452.267h-93.867c-4.71,0-8.533,3.823-8.533,8.533s3.823,8.533,8.533,8.533H307.2c4.71,0,8.533-3.823,8.533-8.533
			S311.91,452.267,307.2,452.267z"/>
	</g>
</g>
<g>
	<g>
		<path fill="white" d="M290.133,418.133H230.4c-4.71,0-8.533,3.823-8.533,8.533s3.823,8.533,8.533,8.533h59.733c4.71,0,8.533-3.823,8.533-8.533
			S294.844,418.133,290.133,418.133z"/>
	</g>
</g>
<g>
	<g>
		<path fill="white" d="M162.133,452.267H76.8c-4.71,0-8.533,3.823-8.533,8.533s3.823,8.533,8.533,8.533h85.333c4.71,0,8.533-3.823,8.533-8.533
			S166.844,452.267,162.133,452.267z"/>
	</g>
</g>
<g>
	<g>
		<path fill="white" d="M145.067,418.133h-51.2c-4.71,0-8.533,3.823-8.533,8.533s3.823,8.533,8.533,8.533h51.2c4.71,0,8.533-3.823,8.533-8.533
			S149.777,418.133,145.067,418.133z"/>
	</g>
</g>
<g>
	<g>
		<path fill="white" d="M443.733,452.267H358.4c-4.71,0-8.533,3.823-8.533,8.533s3.823,8.533,8.533,8.533h85.333c4.71,0,8.533-3.823,8.533-8.533
			S448.444,452.267,443.733,452.267z"/>
	</g>
</g>
<g>
	<g>
		<path fill="white" d="M426.667,418.133h-51.2c-4.71,0-8.533,3.823-8.533,8.533s3.823,8.533,8.533,8.533h51.2c4.71,0,8.533-3.823,8.533-8.533
			S431.377,418.133,426.667,418.133z"/>
	</g>
</g>
<g>
	<g>
		<path fill="white" d="M193.766,249.967c-3.328-3.337-8.738-3.337-12.066,0l-42.667,42.667c-3.337,3.337-3.337,8.73,0,12.066
			c1.664,1.664,3.849,2.5,6.033,2.5c2.185,0,4.369-0.836,6.033-2.5l42.667-42.667C197.103,258.697,197.103,253.303,193.766,249.967z
			"/>
	</g>
</g>
<g>
	<g>
		<path fill="white" d="M236.433,292.634l-42.667-42.667c-3.328-3.337-8.738-3.337-12.066,0c-3.337,3.336-3.337,8.73,0,12.066l42.667,42.667
			c1.664,1.664,3.849,2.5,6.033,2.5c2.185,0,4.369-0.836,6.033-2.5C239.77,301.363,239.77,295.97,236.433,292.634z"/>
	</g>
</g>
<g>
	<g>
		<path fill="white" d="M262.033,232.9c-3.328-3.337-8.738-3.337-12.066,0L207.3,275.567c-3.337,3.337-3.337,8.73,0,12.066
			c1.664,1.664,3.849,2.5,6.033,2.5c2.185,0,4.369-0.836,6.033-2.5l42.667-42.667C265.37,241.63,265.37,236.237,262.033,232.9z"/>
	</g>
</g>
<g>
	<g>
		<path fill="white" d="M304.7,275.567L262.033,232.9c-3.328-3.337-8.738-3.337-12.066,0c-3.337,3.337-3.337,8.73,0,12.066l42.667,42.667
			c1.664,1.664,3.849,2.5,6.033,2.5c2.185,0,4.369-0.836,6.033-2.5C308.036,284.297,308.036,278.903,304.7,275.567z"/>
	</g>
</g>
<g>
</g>
<g>
</g>
<g>
</g>
<g>
</g>
<g>
</g>
<g>
</g>
<g>
</g>
<g>
</g>
<g>
</g>
<g>
</g>
<g>
</g>
<g>
</g>
<g>
</g>
<g>
</g>
<g>
</g>
</svg>
