<svg id="Capa_1" enable-background="new 0 0 512 512" height="512" viewBox="0 0 512 512" width="512" xmlns="http://www.w3.org/2000/svg"><g><path fill="white" d="m16.36 341.278h206.125v23.407h-165.605c-4.142 0-7.5 3.358-7.5 7.5s3.358 7.5 7.5 7.5h9.621v14.187h-7.32c-5.404 0-9.8 4.396-9.8 9.8v23.293c0 5.404 4.396 9.8 9.8 9.8h118.153l45.152 45.152v22.583c0 4.142 3.358 7.5 7.5 7.5h52.028c4.143 0 7.5-3.358 7.5-7.5v-22.582l45.153-45.153h59.214c4.143 0 7.5-3.358 7.5-7.5s-3.357-7.5-7.5-7.5h-329.501v-12.894h383.239v12.894h-18.738c-4.143 0-7.5 3.358-7.5 7.5s3.357 7.5 7.5 7.5h23.938c5.403 0 9.8-4.396 9.8-9.8v-23.293c0-5.404-4.396-9.8-9.8-9.8h-7.32v-14.187h9.62c4.143 0 7.5-3.358 7.5-7.5s-3.357-7.5-7.5-7.5h-165.605v-23.407h206.126c6.661 0 12.08-5.419 12.08-12.08v-261.655c0-6.661-5.419-12.08-12.08-12.08h-79.86v-13.147h14.244c6.008 0 10.366-5.778 8.699-11.56l-6.981-24.219c-1.114-3.849-4.69-6.537-8.696-6.537h-55.221c-4.006 0-7.582 2.688-8.699 6.545l-6.979 24.21c-1.664 5.773 2.682 11.56 8.699 11.56h14.244v13.147h-98.746v-13.146h14.244c6.008 0 10.366-5.778 8.699-11.56l-6.981-24.219c-1.114-3.849-4.69-6.537-8.696-6.537h-55.22c-4.011 0-7.588 2.692-8.698 6.545l-6.979 24.211c-1.665 5.774 2.682 11.56 8.699 11.56h14.245v13.147h-98.747v-13.147h14.245c6.009 0 10.366-5.779 8.699-11.561l-6.979-24.208c-1.112-3.855-4.689-6.547-8.7-6.547h-55.22c-4.012 0-7.589 2.692-8.699 6.545l-6.979 24.211c-1.665 5.774 2.682 11.56 8.699 11.56h14.244v13.147h-79.86c-6.661 0-12.08 5.419-12.08 12.08v261.655c0 6.661 5.419 12.08 12.08 12.08zm273.154 119.427v-23.939h23.939zm-15 36.295h-37.028v-60.234h11.014v42.046c0 4.142 3.358 7.5 7.5 7.5 4.143 0 7.5-3.358 7.5-7.5v-42.046h11.014zm-52.028-60.234v23.939l-23.939-23.939zm52.014-42.894h-37v-14.187h37zm-52.014 0h-36.986v-14.187h36.985v14.187zm-51.986 0h-37v-14.187h37zm-88.999-14.186h37v14.187h-37zm259.999 14.186v-14.187h36.999v14.187zm88.999 0h-37v-14.187h37zm-103.999-14.186v14.187h-36.986v-14.187zm-51.986-15h-37.028v-23.407h37.028zm97.786-349.686h46.271l3.55 12.316h-53.371zm17.791 27.316h10.689v13.147h-10.689zm-157.226-27.316h46.271l3.55 12.316h-53.371zm17.791 27.316h10.689v13.147h-10.689zm-157.227-27.316h46.271l3.55 12.316h-53.371zm17.791 27.316h10.688v13.147h-10.688zm-91.94 28.147h473.44v255.815h-473.44z"/><path fill="white" d="m482.031 304.19v-211.638c0-6.286-5.114-11.4-11.4-11.4h-361.63c-4.142 0-7.5 3.358-7.5 7.5s3.358 7.5 7.5 7.5h358.03v204.438h-422.062v-204.438h29.032c4.142 0 7.5-3.358 7.5-7.5s-3.358-7.5-7.5-7.5h-32.632c-6.286 0-11.4 5.114-11.4 11.4v211.638c0 6.286 5.114 11.4 11.4 11.4h429.262c6.286 0 11.4-5.114 11.4-11.4z"/><path fill="white" d="m271.235 160.397c3.966-1.196 6.212-5.38 5.016-9.346s-5.382-6.214-9.346-5.016c-9.938 2.997-20.22 4.929-30.569 5.745h-1.331c-1.619-1.696-3.901-2.754-6.425-2.754h-50.849c-2.265 0-4.335.853-5.906 2.253l-17.675 3.613c-5.487 1.123-9.469 6.002-9.469 11.602v33.55c0 5.601 3.983 10.48 9.471 11.602l17.674 3.613c1.227 1.094 2.758 1.853 4.448 2.133l14.253 53.194c.079.298.011-.377.731 9.407.525 7.136 7.42 12.065 14.364 10.207l32.81-8.792c8.461-2.267 11.335-12.87 5.159-19.098l-1.137-1.146c-2.873-2.896-4.949-6.51-6.005-10.45l-8.896-33.201h1.028c2.524 0 4.806-1.058 6.425-2.754h1.331c21.643 1.708 42.991 8.377 61.754 19.297 12.265 7.137 11.396 6.579 11.396 6.725 0 10.812 8.796 19.607 19.606 19.607 10.812 0 19.607-8.795 19.607-19.607v-29.122l15.978-5.322c4.896-1.631 8.187-6.194 8.187-11.356v-23.421c0-5.161-3.29-9.725-8.187-11.355l-15.978-5.322v-29.122c0-10.812-8.796-19.607-19.607-19.607-10.603 0-19.606 8.552-19.606 19.701l-11.396 6.631c-3.58 2.083-4.793 6.674-2.71 10.254 2.084 3.58 6.675 4.794 10.255 2.71l3.851-2.241v80.122l-3.851-2.241c-20.712-12.053-44.279-19.412-68.17-21.29v-33.062c11.431-.898 22.792-3.031 33.769-6.341zm86.629 13.347v19.05l-9.164 3.052v-25.155zm-33.378-47.985c0-2.54 2.066-4.607 4.606-4.607 2.541 0 4.607 2.067 4.607 4.607v115.02c0 2.54-2.066 4.607-4.607 4.607-2.54 0-4.606-2.067-4.606-4.607zm-102.021 76.752c-6.985 0-23.724-.001-38.62-.001v-38.484h38.62zm-62.784-33.439 9.165-1.874v32.141l-9.165-1.874zm62.278 85.523c0-.317 1.3 6.679 6.934 13.839l-22.991 6.161-.345-4.697c-.168-2.281.633 1.184-13.721-52.386h20.187z"/></g></svg>